<svg xmlns="http://www.w3.org/2000/svg" width="126" height="42" fill="none"><path fill="#000" d="M85.63 16.325c-.226-.07-.457 0-.684-.035a10.94 10.94 0 0 1 0-2.077c1.458 0 2.916-.004 4.375-.006.553 0 1.103.004 1.656.006.142.334.197.696.282 1.048.516 2.108 1.037 4.215 1.545 6.326.03.125.061.25.11.369.014.047.014.099.033.146.051-.03.028-.094.05-.137.22-.693.365-1.408.54-2.114.452-1.805.89-3.615 1.342-5.42.02-.077.037-.153.085-.215.526-.001 1.052-.007 1.576-.007 1.414 0 2.826 0 4.239-.003.14 0 .193.02.188.194-.012.57-.01 1.141 0 1.71.001.148-.025.198-.169.193-.175-.007-.352-.04-.525.023-.016.034-.046.05-.074.067-.227.13-.328.338-.325.616.002.209 0 .416 0 .626v7.65c0 .109 0 .217.021.322.051.263.275.46.52.47.182.008.368-.035.544.044v2.033c-.107.046-.217.045-.329.045h-5.023c-.112 0-.222.003-.327-.05l.005.006a.77.77 0 0 1-.045-.294v-1.49c0-.087-.001-.174.045-.25l-.005.006c.228-.098.466-.04.702-.046.457-.01.402.031.402-.442v-6.49c0-.547.012-1.096-.02-1.642 0-.089.012-.179.012-.278-.011.06-.018.11-.031.159-.018.073-.031.147-.05.221-.325 1.07-.565 2.17-.846 3.255-.304 1.173-.593 2.351-.89 3.528-.298 1.191-.604 2.379-.901 3.57-.017.069-.032.14-.086.19l.01-.008c-.08.055-.171.055-.262.055h-1.683a.495.495 0 0 1-.263-.053l.008.008c-.156-.298-.195-.638-.276-.96-.371-1.506-.752-3.008-1.124-4.513-.35-1.42-.713-2.839-1.06-4.261-.066-.27-.143-.538-.224-.803l-.049-.19c-.013-.068-.03-.135-.038-.204.013.12.017.239.017.36-.037 2.727-.007 5.456-.017 8.183 0 .312 0 .305.283.316.288.01.577-.05.861.041v2.034c-.106.047-.217.045-.328.045H85.27c-.112 0-.222.004-.328-.049l.006.006a.777.777 0 0 1-.045-.294v-1.491c0-.087-.002-.173.044-.25l-.005.006c.135-.081.282-.036.421-.049.084-.001.168.006.252-.007.304-.122.432-.368.432-.718-.001-2.763-.005-5.527.003-8.29 0-.363-.172-.568-.424-.736l.004-.005Zm22.438 2.622c.041-.052.009-.139.069-.184.094-.054.192-.023.289-.023a76.01 76.01 0 0 1 1.299 0c.064 0 .131-.022.19.023l.041.04c.041.103.037.211.037.32v3.91c0 .107.011.217-.045.314l.005-.005c-.064.047-.136.047-.209.047h-1.436c-.073 0-.145 0-.208-.049-.008-.047.005-.1-.032-.139-.094-.263-.082-.548-.12-.821-.022-.159-.084-.22-.209-.222a39.443 39.443 0 0 0-1.221 0c-.13.002-.198.07-.198.231a404.9 404.9 0 0 1 0 3.306c0 .148.061.21.183.224.053.006.105.004.158.004h2.835c.312 0 .339-.032.376-.374.06-.548.14-1.093.211-1.64a.123.123 0 0 1 .033-.076l.033-.056a.484.484 0 0 1 .23-.042h1.671c.079 0 .158-.001.227.05l-.005-.006c.053.09.045.193.045.294v3.741c0 .116 0 .23-.045.338l.005-.005a1.01 1.01 0 0 1-.366.048h-9.875c-.112 0-.224 0-.331-.041l-.031-.045c-.04-.04-.027-.094-.027-.143v-1.66c0-.05-.011-.102.023-.145l.037-.045c.166-.07.338-.034.508-.04.302-.007.517-.216.56-.545.013-.1.017-.2.017-.301 0-2.675-.004-5.352.005-8.026 0-.385-.081-.693-.412-.877-.169-.073-.345-.015-.516-.033-.067-.007-.144.033-.199-.047-.046-.087-.021-.182-.021-.274-.003-.504-.002-1.007 0-1.513 0-.07-.021-.144.023-.209.048-.074.119-.047.181-.047h10.082c.063 0 .133-.027.181.047.035.043.023.096.023.144v3.783c0 .05.015.103-.026.143-.012.014-.022.03-.033.045-.12.047-.245.042-.368.042h-1.396a.56.56 0 0 1-.248-.047l-.036-.136c-.112-.224-.08-.485-.155-.72-.039-.269-.085-.538-.129-.807-.022-.128-.084-.198-.216-.198-1.011.002-2.021.002-3.032 0-.139 0-.183.063-.183.207.003 1.01 0 2.018.002 3.027 0 .089-.005.186.112.184.485-.007.969.03 1.453-.02.1-.249.084-.523.13-.783.011-.061-.012-.13.047-.175l.007.007Zm-97.098-4.77c.073.05.153.029.23.029.757.003 1.511.003 2.267.005.043.116.041.238.041.361v3.82c0 .124-.005.245-.036.364l-.044.048a1.129 1.129 0 0 1-.39.038c-.577-.012-1.152.027-1.729-.021-.033-.004-.066 0-.087-.033l-.036-.032c-.114-.33-.135-.684-.2-1.025-.048-.246-.083-.495-.126-.74-.023-.134-.08-.235-.217-.271-.715-.184-1.431-.265-2.156-.058-.689.197-1.185.66-1.53 1.328-.295.57-.433 1.195-.515 1.843a11.674 11.674 0 0 0-.03 2.455c.068.787.194 1.566.546 2.276.43.864 1.08 1.328 1.986 1.339.388.005.77-.013 1.15-.114.122-.032.186-.092.19-.229.016-.662.01-1.327.003-1.989 0-.168-.106-.199-.222-.202-.224-.006-.447 0-.67-.002-.039 0-.08.01-.113-.025l-.04-.04a.52.52 0 0 1-.035-.19c-.002-.539-.004-1.077 0-1.616a.48.48 0 0 1 .04-.23l-.004.006c.105-.05.215-.05.327-.05h4.629c.111 0 .223 0 .328.046v2.076a.337.337 0 0 1-.207.043c-.28-.03-.453.123-.57.383-.015.032-.026.065-.058.083-.05.07-.026.153-.026.229a3245.16 3245.16 0 0 0-.007 4.068c-.131.056-.27.043-.407.045-.375 0-.75.002-1.124 0-.083 0-.17.006-.24-.058v.011l.011-.003c-.066-.051-.103-.129-.158-.19-.141-.162-.274-.198-.458-.112-1.046.493-2.135.59-3.256.491a6.585 6.585 0 0 1-1.953-.455c-1.121-.465-1.997-1.258-2.587-2.411-.457-.89-.69-1.855-.797-2.866a12.212 12.212 0 0 1-.071-1.767c.064-1.5.337-2.938 1.126-4.207.659-1.06 1.551-1.783 2.653-2.206a6.754 6.754 0 0 1 2.212-.435c.77-.025 1.532.017 2.291.141a.093.093 0 0 1 .063.045l.006.004Zm9.874 2.113c-.396 0-.792 0-1.189.007-.05 0-.116-.043-.156.036.084.121.018.253.018.378.005 1.573.002 3.145.005 4.72 0 .755-.028 1.515.023 2.27.041.595.16 1.17.566 1.617.261.289.59.43.945.493.468.083.938.079 1.405-.033.664-.159 1.067-.615 1.258-1.314.11-.402.141-.82.141-1.236.003-2.171 0-4.344.005-6.516 0-.124-.066-.256.018-.377-.04-.08-.105-.036-.158-.036-.34-.004-.68-.002-1.022 0-.08 0-.135 0-.133-.12.005-.627.001-1.252.001-1.878 0-.045.005-.087.048-.108a.05.05 0 0 1 .04 0c.065.005.13.012.195.012h4.528c.07 0 .147-.034.2.046.047.086.022.182.022.274.004.503.002 1.007 0 1.512 0 .07.022.145-.023.21-.108.097-.236.027-.353.045-.107.018-.22-.035-.322.034-.115.121-.262.21-.335.374a.463.463 0 0 0-.052.245v6.481c-.057.652-.131 1.298-.338 1.919-.38 1.132-1.059 1.955-2.07 2.442-.73.35-1.497.502-2.29.543a9.14 9.14 0 0 1-1.237-.01c-1.17-.098-2.276-.412-3.19-1.282-.658-.626-1.036-1.439-1.244-2.354a8.038 8.038 0 0 1-.18-1.774c-.005-1.933-.001-3.864 0-5.797 0-.26-.024-.505-.24-.67-.052-.04-.123-.052-.16-.119-.157-.061-.32-.012-.48-.029-.068-.007-.147.033-.201-.047-.046-.086-.022-.182-.022-.274-.003-.503-.001-1.007 0-1.512 0-.07-.02-.145.023-.21.037-.06.09-.047.143-.047h5.771c.014 0 .027.004.04.006.066.693.066 1.384 0 2.077v.002Zm98.917-2.111c.066.052.14.027.211.029h1.831c.1 0 .153.005.151.144-.007 1.252-.007 2.505-.008 3.76-.079.045-.165.043-.25.043h-1.754c-.097 0-.196.005-.281-.056v.012l.013-.001c-.13-.332-.133-.695-.212-1.04a4.954 4.954 0 0 1-.069-.4c-.019-.147-.082-.219-.204-.25-.473-.117-.946-.196-1.438-.139-.342.042-.669.105-.97.307-.665.448-.682 1.73-.069 2.202.382.294.807.442 1.241.578.819.256 1.649.467 2.426.862.714.365 1.327.854 1.67 1.663.176.413.255.855.301 1.31.077.74.02 1.464-.158 2.178-.272 1.101-.882 1.894-1.816 2.392a5.019 5.019 0 0 1-2.043.561c-.086.006-.168.038-.253.044-.414 0-.827.003-1.241 0-.107-.028-.219-.015-.327-.04a8.741 8.741 0 0 1-.835-.107 1.484 1.484 0 0 0-.253-.023h-2.022c-.099 0-.197.003-.289-.04l-.045-.049a1.426 1.426 0 0 1-.036-.362v-3.52c0-.123 0-.243.041-.36h2.324c.127.351.127.728.196 1.093.039.21.067.424.09.637.015.126.073.227.203.258.711.17 1.43.215 2.141.036.627-.157.988-.707 1.011-1.384.03-.88-.434-1.211-.956-1.457-.507-.24-1.048-.362-1.577-.527-.677-.209-1.347-.44-1.931-.89-.786-.604-1.22-1.445-1.346-2.483-.089-.726-.087-1.447.08-2.162.271-1.157.908-1.978 1.892-2.476.689-.349 1.415-.495 2.172-.526.433-.018.866-.001 1.298.017.366.016.743.014 1.095.173l-.004-.007Zm-72.327 4.844c.068.052.043.13.043.198v4.485c0 .07.025.147-.043.2-.087.051-.18.023-.27.023-.453.003-.905.003-1.359 0-.06 0-.131.032-.184-.033l-.034-.128c-.094-.302-.08-.621-.124-.931-.032-.248-.037-.267-.263-.27-.374 0-.747.004-1.122-.001-.143-.002-.199.058-.197.216.003 1.024.003 2.047 0 3.07 0 .17.057.23.208.226.316-.007.63-.003.945-.002.09 0 .184-.009.267.049l-.005-.005c.036.041.031.095.031.142.013.596.031 1.191-.008 1.785 0 .022-.009.042-.015.062l-.044.048a1.06 1.06 0 0 1-.33.04h-5.336c-.112 0-.222 0-.329-.041l-.031-.046c-.04-.04-.026-.093-.026-.142v-1.66c0-.05-.012-.102.023-.145l.036-.045c.166-.069.337-.034.506-.04.322-.007.557-.26.557-.613 0-2.838 0-5.677.004-8.514 0-.316-.181-.473-.388-.62-.17-.073-.346-.015-.516-.033-.068-.008-.145.032-.2-.047-.045-.087-.02-.183-.02-.275-.004-.503-.002-1.007 0-1.512 0-.07-.022-.145.022-.21.041-.066.105-.046.163-.046h10.089c.026 0 .052.003.079.007.043.115.04.238.04.36v3.565c0 .123.003.244-.04.361-.646.002-1.29 0-1.936.011-.119.002-.116-.083-.149-.151-.096-.3-.105-.618-.162-.926-.046-.246-.073-.497-.119-.744-.024-.13-.088-.182-.205-.182h-2.937c-.112 0-.173.043-.173.175.004 1.175-.008 2.352.007 3.526 0 .015.008.028.013.04.038.05.092.049.143.05.41.003.823.004 1.234 0 .04 0 .08-.003.11-.032.112-.312.083-.65.147-.97.01-.05.001-.102.047-.134l.035-.128c.025-.05.069-.035.105-.035h1.616c.033 0 .066 0 .092.026l.003-.004Zm27.377 9.085-.044.049a1.09 1.09 0 0 1-.33.04h-5.22c-.11 0-.221.003-.327-.05l.005.006a.776.776 0 0 1-.044-.294v-1.49c0-.087-.003-.174.044-.25l-.003.006c.174-.098.362-.04.54-.046.348-.01.527-.157.617-.534.012-.1.008-.202.008-.303v-8.461c0-.107.025-.217-.034-.316-.056-.05-.123-.045-.187-.045-.349 0-.697.007-1.044-.004-.15-.003-.209.055-.23.215-.035.256-.038.514-.058.77-.043.522-.103 1.04-.13 1.564a.126.126 0 0 1-.042.094l-.03.088a.443.443 0 0 1-.23.043h-1.63a.443.443 0 0 1-.23-.043l-.007-4.824c0-.05-.005-.103.047-.13a.05.05 0 0 1 .04 0c.085.005.17.014.254.014h10.78c.089 0 .176-.032.176.14-.008 1.6-.008 3.201-.01 4.8a.444.444 0 0 1-.23.043h-1.633c-.078 0-.157.002-.226-.048l.005.003c-.106-.3-.087-.619-.122-.93-.054-.503-.092-1.01-.146-1.515-.022-.188-.123-.282-.301-.282-.342 0-.682.006-1.024-.002-.148-.003-.19.06-.19.215.003 2.955 0 5.907.003 8.862 0 .329.238.572.54.583.214.007.433-.038.641.047l-.004-.006c.036.042.03.096.03.143.014.596.032 1.191-.008 1.785 0 .022-.008.042-.014.061l-.002.002Zm-38.496-4.703.032-.143a.428.428 0 0 1 .23-.045h1.712c.078 0 .157-.001.226.05l-.005-.006c.053.09.045.193.045.294v4.261c0 .116 0 .23-.045.338l.005-.006a1.014 1.014 0 0 1-.366.049h-9.52c-.112 0-.224.002-.33-.045V26.12c.159-.076.326-.056.486-.04.297.03.595-.262.618-.643.003-.065 0-.13 0-.195 0-2.653-.005-5.306.006-7.959.002-.417-.075-.75-.427-.958-.184-.065-.375-.022-.56-.027-.084-.004-.13-.011-.13-.125.005-.624.001-1.249.001-1.873 0-.046.005-.087.048-.109a.05.05 0 0 1 .04 0c.078.006.155.013.235.015h5.691c.063 0 .134-.027.181.047.046.086.022.182.022.274.003.504.001 1.007 0 1.513 0 .07.021.144-.023.209-.048.074-.119.047-.181.047-.432 0-.863-.002-1.295 0-.043 0-.107-.047-.132.038.05.061.033.135.033.205 0 3.018 0 6.036.002 9.054 0 .111-.051.258.111.303.934.009 1.866 0 2.8.005.136 0 .19-.045.21-.206.086-.718.154-1.436.232-2.155.005-.05.008-.1.046-.137l.002.002Zm47.953 4.704c-.01.016-.022.03-.032.047a.892.892 0 0 1-.328.041H78.65c-.112 0-.221-.005-.33-.04l-.045-.048c-.072-.428-.026-.86-.032-1.289-.004-.235-.037-.473.04-.702l-.004.005c.202-.093.419-.066.621-.04.31.042.602-.348.602-.635v-.195c0-2.667-.007-5.336.006-8.004.002-.397-.085-.704-.394-.919-.275-.083-.558-.005-.834-.04a.904.904 0 0 1-.04-.295v-1.53c0-.086.01-.172.039-.254 1.228 0 2.454-.003 3.682-.005h2.126c.063 0 .134-.027.181.047.046.087.022.182.022.274.003.504.001 1.007 0 1.513 0 .07.021.144-.023.21-.109.097-.235.028-.354.044-.17.026-.347-.043-.514.038-.02.04-.055.061-.087.085a.636.636 0 0 0-.267.543c.002 2.828 0 5.657.002 8.485 0 .39.222.624.576.633.202.004.407-.036.606.038l.036.045c.046.118.02.24.021.361.004.46.004.92 0 1.381 0 .069.025.144-.024.208l.005-.002Z"/><path fill="#000" d="M10.97 14.177a12.227 12.227 0 0 0-2.098-.162c-1.292.021-2.528.288-3.633 1.072-1.234.877-1.97 2.15-2.31 3.698-.427 1.954-.4 3.902.233 5.802.639 1.917 1.92 3.063 3.714 3.513 1.29.323 2.587.342 3.871-.078.163-.052.32-.123.477-.193.297-.134.444-.09.623.202.021.036.038.076.056.112-.06-.004-.096-.05-.127-.094-.168-.235-.361-.231-.596-.12-.551.266-1.133.38-1.73.445a7.234 7.234 0 0 1-2.552-.182c-1.51-.376-2.704-1.246-3.468-2.76-.45-.888-.676-1.846-.776-2.848a11.824 11.824 0 0 1-.071-1.722c.066-1.512.334-2.963 1.128-4.247.844-1.364 2.046-2.128 3.484-2.49a7.38 7.38 0 0 1 2.68-.152c1.145.135 2.287.146 3.433.152.025 0 .05.007.074.052h-2.416.005Zm108.791.002a11.145 11.145 0 0 0-2.078-.163c-.91.01-1.803.143-2.626.614-1.028.588-1.613 1.527-1.791 2.774-.123.866-.092 1.725.171 2.557.309.977.952 1.612 1.789 2.038.674.343 1.4.509 2.109.736.338.11.679.217.992.397.604.349.811.798.737 1.562-.059.61-.429 1.084-1.029 1.236-.753.191-1.509.146-2.259-.067-.095-.027-.103-.085-.115-.166-.087-.61-.177-1.222-.268-1.832.092.038.099.137.111.215.074.473.146.946.203 1.422.023.193.096.294.273.332.676.145 1.353.179 2.027.018.616-.148.955-.667.986-1.348.036-.801-.355-1.146-.919-1.41-.598-.28-1.239-.411-1.859-.615-.817-.269-1.597-.612-2.199-1.317-.478-.562-.723-1.237-.83-1.986a6.585 6.585 0 0 1-.03-1.444c.106-1.34.637-2.415 1.736-3.093.795-.491 1.659-.684 2.563-.69.348-.002.696-.003 1.045 0 .426.006.846.067 1.264.148.184.036.366.02.549.022.518.005 1.035 0 1.551 0v.052h-2.103v.008Zm-93.269 2.674c.043-.269.184-.442.42-.525h.548v.049c-.094 0-.19.013-.284-.002-.33-.052-.62.312-.617.666.015 2.092.028 4.184-.001 6.276-.017 1.093-.229 2.153-.816 3.079-.573.904-1.38 1.422-2.332 1.718-.948.296-1.92.296-2.886.244a5.204 5.204 0 0 1-2.283-.645c-1.144-.642-1.831-1.684-2.122-3.046a7.075 7.075 0 0 1-.165-1.493c.005-2.005.002-4.01 0-6.016 0-.467-.166-.732-.496-.776-.148-.02-.3-.003-.449-.003v-.056h.567c.278.076.434.308.434.65 0 1.976-.003 3.95.002 5.927 0 .678.06 1.352.235 2.005.41 1.53 1.31 2.554 2.69 3.023 1.582.538 3.183.543 4.762-.007 1.457-.51 2.303-1.65 2.634-3.274.079-.388.1-.782.157-1.172.03-.052.019-.112.019-.17V17c0-.051.006-.102-.014-.15l-.003.003Z"/><path fill="#000" d="M116.539 28.295c.087.064.188-.013.276.028.206.06.415.024.622.024.227 0 .455.032.682-.022.605-.072 1.208-.153 1.788-.382 1.47-.582 2.234-1.748 2.395-3.428a6.826 6.826 0 0 0-.059-1.828c-.192-1.096-.799-1.83-1.687-2.32-.687-.378-1.421-.606-2.159-.824-.479-.143-.964-.267-1.409-.518-.644-.363-.896-.951-.72-1.72.104-.453.37-.76.768-.908.752-.282 1.51-.21 2.265.013.082.023.102.077.113.15l.257 1.548c-.124-.078-.104-.226-.129-.345a26.455 26.455 0 0 1-.195-1.097c-.018-.116-.068-.18-.17-.208-.669-.186-1.341-.24-2.013-.025-.477.154-.781.507-.852 1.049-.072.56.075 1.041.535 1.36.342.239.724.363 1.111.48.882.271 1.78.497 2.603.955.651.361 1.205.845 1.516 1.596.177.428.256.883.307 1.352a6.236 6.236 0 0 1-.166 2.196c-.243.975-.771 1.722-1.566 2.231-.728.466-1.527.652-2.359.73-.44.04-.879.037-1.317.026-.223-.005-.455 0-.673-.077.074-.05.161.002.236-.035v-.001Zm-63.546-9.667c.138-.42.373-.778.62-1.12a5.662 5.662 0 0 1 2.647-2.042 4.938 4.938 0 0 1 2.247-.291c1.15.112 2.182.565 3.077 1.38 1.12 1.019 1.807 2.313 2.01 3.883.214 1.646-.121 3.171-1.014 4.532a5.828 5.828 0 0 1-1.801 1.765c-.028.018-.06.022-.092.032-.046.013-.051-.018-.048-.055.045-.087.123-.127.196-.175 1.446-.979 2.352-2.381 2.615-4.224.264-1.857-.161-3.53-1.297-4.965-.843-1.065-1.9-1.734-3.16-1.958-1.822-.325-3.433.187-4.782 1.608a6.204 6.204 0 0 0-1.024 1.445c-.046.09-.076.206-.188.235-.023-.014-.024-.032-.006-.054v.004ZM9.286 23.344c.309-.004.616-.008.925-.015.08-.002.119.017.119.117-.004.737-.004 1.473 0 2.208 0 .076-.018.128-.088.143-.935.205-1.867.33-2.694-.37-.53-.452-.802-1.094-.953-1.793-.352-1.615-.4-3.236.013-4.846.225-.875.666-1.592 1.442-2.001.568-.3 1.175-.325 1.79-.266.307.031.611.085.905.19.068.023.116.041.129.132.1.637.207 1.274.312 1.91-.079-.026-.079-.104-.092-.174-.089-.515-.18-1.027-.266-1.541-.025-.148-.083-.253-.226-.291-.69-.175-1.384-.25-2.079-.058-.853.233-1.387.86-1.716 1.722-.222.581-.312 1.195-.368 1.821-.044.491-.048.98-.025 1.467.046.979.145 1.951.577 2.836.416.85 1.056 1.312 1.95 1.321.361.004.72-.007 1.075-.087.18-.04.256-.153.256-.342 0-.578.003-1.156 0-1.733-.002-.233-.07-.3-.29-.305-.17-.004-.341 0-.512-.002-.063 0-.133.023-.183-.047l-.001.004Zm14.599-7.01c.005.058.012.113.012.171v6.814c0 .433-.05.86-.176 1.274-.194.637-.589 1.048-1.182 1.207a3.196 3.196 0 0 1-1.714-.005c-.717-.202-1.082-.758-1.241-1.513a4.821 4.821 0 0 1-.096-.985v-6.835c0-.043.009-.085.012-.128h1.259v.045h-.95c-.216 0-.265.05-.265.294 0 2.186-.011 4.373.007 6.559.005.512.05 1.03.251 1.514.252.607.692.924 1.274 1.024.455.077.91.073 1.366-.033.65-.153 1.05-.59 1.236-1.272.125-.457.161-.932.161-1.406.003-2.1.002-4.2.002-6.3 0-.358-.02-.38-.345-.38-.275 0-.551 0-.827-.045h1.216Zm71.081-2.119c-.63 2.557-1.26 5.115-1.892 7.672-.01.04-.028.08-.042.117-.051.085-.102.096-.153 0-.247-.996-.495-1.992-.74-2.99-.386-1.572-.769-3.144-1.154-4.716-.006-.027-.006-.058-.01-.085.086.038.102.123.124.207.555 2.287 1.11 4.576 1.67 6.862.047.192.08.392.176.587.111-.097.121-.242.15-.363.418-1.689.83-3.38 1.243-5.071.16-.652.321-1.302.489-1.951.024-.098.026-.222.14-.27ZM93.572 28.15l2.676-10.566c.075-.06.134-.057.152.058.009.049.004.101.004.152 0 2.66 0 5.32-.004 7.98 0 .07.066.18-.057.216v-8.173c-.117.043-.118.14-.136.213-.418 1.653-.83 3.308-1.248 4.962-.42 1.66-.84 3.32-1.262 4.98-.02.073-.04.156-.125.178Zm-4.837-10.57c.187.74.38 1.476.563 2.214.696 2.785 1.391 5.571 2.084 8.356-.17-.103-.152-.31-.193-.473-.61-2.413-1.21-4.828-1.812-7.244-.19-.77-.38-1.538-.572-2.305-.023-.092-.034-.195-.153-.305v8.163c-.113-.029-.057-.13-.057-.193-.005-.6-.004-1.197-.004-1.796V17.81c0-.058-.006-.115.004-.173.015-.101.069-.105.138-.058l.002.002Z"/><path fill="#000" d="m52.993 18.627.007.058c.048.121-.013.228-.05.33a6.541 6.541 0 0 0-.41 2.686c.087 1.363.528 2.574 1.35 3.613.432.546.933.991 1.507 1.336a5.083 5.083 0 0 0 4.694.296c.06-.027.123-.054.19-.034.032.014.058.032.05.077-.903.462-1.86.603-2.837.511-1.095-.103-2.084-.545-2.946-1.3-.912-.797-1.55-1.808-1.891-3.033a6.601 6.601 0 0 1-.224-2.424 7.54 7.54 0 0 1 .418-1.83c.036-.1.069-.203.142-.282v-.004Zm26.12-2.297a.625.625 0 0 1 .419.603v8.542c0 .361-.27.643-.603.645-.217 0-.434.003-.65.005.068-.105.171-.092.268-.092h.316c.363 0 .597-.253.598-.657.004-.93 0-1.859 0-2.789v-5.47c0-.513-.204-.738-.666-.738-.142 0-.286 0-.43-.047h.748v-.002Zm22.595 11.825c1.45 0 2.901-.003 4.351-.005h6.221c-.1.08-.215.09-.333.09h-9.943c-.105 0-.208-.007-.296-.084Zm-65.394-4.75a564.49 564.49 0 0 0-.243 2.444c-.01.097-.05.117-.125.115l-2.913-.014c-.11-.038-.14-.12-.14-.245.002-3.043.002-6.085 0-9.128 0-.097 0-.19.096-.238h1.376v.038h-1.103c-.294 0-.31.016-.31.345v8.825c0 .209.095.313.282.313.835 0 1.668-.004 2.503.003.163 0 .252-.027.268-.234.035-.435.094-.867.143-1.3.035-.305.07-.61.107-.915.007-.054.023-.119.057-.009h.002Zm47.92 2.711-.67.003c-.276 0-.528-.254-.554-.557-.003-.036-.002-.072-.002-.109v-8.5c0-.302.142-.52.395-.621h.744v.045h-.511c-.334.002-.546.227-.546.587v8.475c0 .365.21.58.536.596.202.01.42-.083.608.08Zm-55.251-9.79c.295.094.454.334.454.69v8.364c0 .462-.25.74-.664.74h-.472c.084-.114.203-.087.31-.087.59-.002.755-.186.755-.84V17.14c0-.545-.197-.763-.69-.763-.097 0-.194 0-.291-.05h.6-.002Zm10.963.002a.615.615 0 0 1 .428.616v8.524c0 .372-.256.65-.595.651-.17 0-.342-.001-.512-.003.146-.15.325-.07.49-.081.246-.015.41-.128.506-.37.03-.078.03-.154.03-.233v-8.45c0-.376-.205-.6-.551-.605-.13-.002-.26 0-.39-.049h.595-.002ZM28.3 28.154h10.138c.026 0 .052-.002.079-.004-.1.08-.216.09-.334.09h-9.587c-.106 0-.209-.005-.295-.086H28.3Zm57.08-2.042c-.144.004-.29.01-.434.013.148-.168.335-.081.505-.087a.522.522 0 0 0 .488-.294.57.57 0 0 0 .072-.285v-8.497c0-.323-.218-.569-.517-.583-.143-.006-.287 0-.43 0v-.053h.566c.347.118.46.4.46.771v8.221c0 .381-.123.67-.475.794a.402.402 0 0 0-.235 0Zm24.738-2.277c-.083.677-.165 1.355-.245 2.032-.017.145-.115.092-.181.092-.934.004-1.866.002-2.799.002-.165 0-.329-.005-.493.002-.094.003-.124-.024-.124-.132.004-1.197.004-2.395 0-3.592 0-.09.02-.126.109-.124.486.003.973.003 1.458 0 .084 0 .12.034.128.12.031.322.062.643.095.966-.015.015-.026.121-.046.011a10.006 10.006 0 0 1-.113-.805c-.015-.171-.102-.225-.232-.225a54.302 54.302 0 0 0-1.083 0c-.156 0-.233.077-.232.267.005 1.06.007 2.12 0 3.18 0 .202.084.272.248.272h2.938c.179 0 .263-.1.286-.281.067-.533.133-1.063.202-1.596.008-.068.033-.135.051-.202 0-.002.013-.002.018 0 .007.002.011.007.016.013h-.001ZM45.585 19.16l-.13 1.157c-.335.049-.674.014-1.01.018-.2.002-.4.027-.599-.018-.003-1.247-.005-2.494-.011-3.742 0-.104.04-.113.118-.113 1.044.002 2.089.002 3.133 0 .075 0 .125.014.138.106.084.598.17 1.193.253 1.79-.048.122-.051.015-.056-.016-.05-.31-.099-.619-.146-.93-.032-.203-.058-.409-.09-.615-.025-.171-.106-.254-.282-.252-.925.009-1.85.003-2.776.003-.077 0-.161-.014-.204.087-.031.045-.02.097-.02.146v3.215c0 .048-.01.1.02.146 0 .036.009.068.04.086.46.037.92.037 1.38 0 .053-.061.061-.14.08-.216.047-.065-.007-.152.037-.219v-.128c.05-.08-.008-.18.04-.26.001-.072 0-.144.008-.214.006-.047.032-.082.079-.033l-.002.002Zm22.742-.101c.024-.65.1-1.294.156-1.94.018-.199.038-.4.046-.598.003-.105.023-.148.131-.146.47.01.942.007 1.412.01.035.06.018.127.018.19v8.846c0 .065.01.13-.013.193-.082.327-.334.545-.657.51-.174-.017-.354 0-.53.003l.038-.05c.196-.057.398.02.594-.04.25.007.366-.186.473-.39.036-.067.02-.141.02-.212v-8.713c0-.07.018-.145-.02-.212l-.077-.043a6.173 6.173 0 0 0-1.184 0c-.194.081-.146.27-.157.433-.055.11.013.237-.038.349v.128c-.053.126.011.265-.04.391v.085c-.052.11.014.237-.038.349v.084c-.054.125.012.266-.04.392v.085c-.05.081.01.18-.037.262l-.05.04-.007-.006ZM45.3 26.125c-.438 0-.879-.009-1.318 0-.124.002-.149-.038-.148-.168a354.56 354.56 0 0 0 0-3.261c0-.14.03-.18.162-.177.439.009.88.009 1.318 0 .117-.002.16.029.172.159.028.364.066.729.1 1.092-.103-.007-.075-.105-.083-.165-.033-.261-.06-.525-.08-.788-.012-.154-.073-.21-.214-.208-.367.007-.735.006-1.102 0-.133-.002-.189.05-.187.2.003 1.01.003 2.017 0 3.026 0 .151.057.202.19.2.315-.006.629 0 .944 0 .092 0 .186-.004.248.092l-.001-.002Zm62.646-6.178c-.034.069-.093.04-.141.04-.46.001-.92-.004-1.381.005-.128.002-.148-.043-.148-.171a342.19 342.19 0 0 0 0-3.204c0-.12.027-.157.14-.157 1.072.005 2.143.004 3.214 0 .09 0 .119.013.139.135.05.31.105.62.15.932.008.047.036.104-.045.104-.052-.294-.111-.588-.156-.884-.021-.143-.085-.199-.21-.199-.998 0-1.996 0-2.995.002-.049 0-.1.027-.149.042-.03.036-.022.08-.022.122v2.998c0 .044-.006.087.02.125l.039.043c.487.034.973.038 1.46-.003l.039-.085c.105.018.046.094.045.15l.001.005Zm-33.14 6.178c-.223 0-.445-.004-.669-.006-.286-.001-.552-.287-.557-.6-.005-.275 0-.547 0-.822 0-2.709.002-5.418-.005-8.127 0-.17.044-.198.184-.195.393.011.787.015 1.182 0 .177-.007.251.047.227.244-.005.034 0 .07 0 .106-.015.016-.03.016-.045.002-.046-.065.012-.153-.04-.216l-.038-.042c-.259-.054-.518-.02-.778-.022-.187-.002-.376-.03-.564.02l-.04.044c-.037.066-.019.14-.019.21v8.715c0 .07-.018.144.02.21.143.324.38.436.698.396.148-.018.313-.043.444.087v-.004Zm27.583-9.797c.297.101.44.316.44.672v8.387c0 .473-.236.73-.666.73l-.453-.003c.099-.12.232-.092.352-.08.485.051.712-.27.712-.784v-8.063c0-.595-.244-.855-.748-.812a.35.35 0 0 1-.232-.049h.595v.002Zm-1.43 9.792h-.533c-.327 0-.586-.277-.586-.638-.002-2.857 0-5.712 0-8.57 0-.28.174-.508.434-.587h.604v.054h-.35c-.411 0-.631.236-.633.693-.003.59 0 1.182 0 1.772v6.441c0 .161.012.324.091.457.105.18.245.303.468.298.168-.005.357-.08.507.081l-.002-.002Zm-61.692 2.035c1.998 0 3.995.002 5.994.004-.089.074-.19.081-.297.081h-5.402c-.106 0-.208-.007-.295-.084Zm39.052.005c.808-.005 1.617-.008 2.426-.008 1.164 0 2.327.003 3.49.005-.086.078-.19.085-.295.085h-5.322c-.107 0-.209-.007-.298-.081l-.001-.002Zm-9.429-.012h5.542c.111 0 .223.006.335.008-.089.074-.192.08-.298.08h-5.286c-.105 0-.21-.003-.292-.09v.002Zm-2.602-13.955h-.039c.025-.088.092-.067.148-.067h10.967c.011 0 .024.008.037.04H66.52c-.078 0-.158-.025-.23.025v.002ZM95.28 28.148c1.894 0 3.787.002 5.679.004-.085.081-.189.086-.294.086h-5.094c-.105 0-.209-.003-.293-.09h.002Zm1.062-2.158c.067-.062.041-.148.041-.223 0-2.654.002-5.308 0-7.962 0-.093.068-.264-.135-.219.017-.07.013-.15.06-.211.055-.047.086-.01.11.043.001.376.006.751.006 1.125 0 2.453-.002 4.907.005 7.36 0 .179-.035.23-.2.222-.314-.015-.632 0-.947 0 .067-.105.17-.085.266-.092.265-.02.534.049.796-.044h-.002Zm-7.607-8.41c-.061.012-.14-.003-.124.113.007.041 0 .086 0 .13v7.921c0 .083-.031.175.04.246.274.095.555.021.833.043.097.007.198-.01.27.088-.355 0-.709-.003-1.064 0-.092 0-.123-.023-.123-.13.005-2.83.006-5.66.008-8.49.041-.023-.034-.234.114-.084.044.045.04.106.04.166l.006-.002Zm-74.201 3.692c-1.762 0-3.524.002-5.284.003.082-.088.185-.09.292-.09h4.7c.105 0 .208.006.294.087h-.002Zm97.457-7.112h-10.189v-.02h10.197l-.006.02h-.002Zm-62.512-.005H39.357v-.016h10.122v.016Zm35.465 13.993c1.605 0 3.209.002 4.813.004-.085.081-.189.086-.294.086h-4.226c-.105 0-.209-.003-.29-.09h-.003Z"/><path fill="#000" d="M32.991 16.339a.432.432 0 0 0-.077.28c.002 3.012.002 6.024 0 9.037 0 .128.026.222.121.292-.09.022-.16.038-.16-.117.005-3.166.006-6.334.008-9.5.036 0 .072.004.108.006v.002Zm5.521 11.815v-4.891c.081.063.084.155.084.25v4.343c0 .108-.008.215-.082.3l-.002-.002Zm31.482-11.647c.067.063.04.148.04.224v8.688c0 .076.024.161-.04.224v-9.136Zm3.67 9.136c-.066-.063-.04-.148-.04-.224v-8.688c0-.076-.026-.16.038-.224v9.136h.002Zm36.284-2.295c0-1.356.003-2.713.005-4.069l.003-.476c.079.076.076.177.076.278v3.994c0 .101.005.204-.084.273Zm-96.476-4.59-.005-4.545c.074.094.08.207.08.323v3.895c0 .117-.007.229-.075.326Zm98.803 9.396v-4.372c.081.063.085.155.085.251v3.823c0 .108-.009.215-.083.3l-.002-.002ZM49.56 18.498v-4.285c.075.094.08.206.08.323v3.642c0 .116-.007.23-.08.323v-.003Zm63.512 5.369-.005 4.242c-.068-.098-.074-.21-.074-.327V24.19c0-.115.005-.229.079-.323Zm3.467 4.428c-.072.061-.158.021-.237.034-.996-.134-1.998-.078-2.998-.088-.075 0-.143-.018-.194-.083.799-.002 1.6-.018 2.399 0 .345.007.687.088 1.03.135v.002ZM28.38 14.193h-.04c.025-.088.093-.067.149-.067h5.828c.018 0 .036.01.063.017-.076.041-.148.021-.217.021-1.858 0-3.715 0-5.572.002-.071 0-.145-.023-.21.025v.002Zm62.508-.033h-5.85v-.02h5.858l-.008.02Zm4.168-.028h5.811v.02h-5.82l.008-.02h.001Zm-16.685.005h5.781v.02h-5.787l.006-.02Zm-57.609.018h-5.741v-.014h5.741v.014Zm-7.062 9.7c.085-.341.275-.508.581-.508h.253c-.054.076-.131.085-.212.089-.396.016-.575.224-.575.673v4c-.054-.118-.036-.197-.036-.273v-3.7c0-.094-.005-.188-.008-.281h-.004Zm8.96-9.662h-.039c.025-.088.092-.067.146-.067h4.645c.018 0 .037.01.063.017-.076.041-.148.021-.217.021-1.463 0-2.926 0-4.39.002-.071 0-.145-.023-.21.025l.002.002Zm54.9.108v4.75h-.017v-4.75h.016Zm-11.426 4.746v-4.733h.018v4.743l-.018-.01Zm53.525-.952c.763.004 1.524.01 2.286.013-.065.09-.157.087-.251.087h-1.749c-.105 0-.209-.002-.286-.1ZM47.54 19.15v4.62h-.014v-4.62h.015Zm27.582-2.426c.015 0 .03 0 .044-.002.051.496.104.99.153 1.487.031.312.056.624.084.938-.148-.095-.102-.272-.115-.406-.054-.557-.094-1.117-.163-1.675-.014-.111-.003-.229-.004-.342h.001Z"/><path fill="#000" d="M38.517 23.266c-.724 0-1.447-.002-2.168-.003.059-.085.144-.089.23-.089h1.71c.087 0 .17.004.228.092Zm52.857 4.879c.737 0 1.472 0 2.208-.002-.077.095-.182.097-.286.097h-1.632c-.106 0-.209-.002-.288-.095h-.002ZM11.222 18.79l2.206.016c-.082.069-.176.081-.276.081h-1.624c-.109 0-.22-.005-.306-.095v-.002Zm101.058 4.996-2.13-.007c.068-.089.16-.085.252-.085h1.63c.092 0 .186-.005.248.092Zm-46.072-4.638h2.091c-.066.09-.158.086-.25.086h-1.59c-.091 0-.184.004-.25-.087h-.001Zm9.192-.004c.696 0 1.393.003 2.089.005-.066.09-.158.087-.252.087h-1.591c-.092 0-.186.005-.248-.092h.002Zm34.673-.78c.67 0 1.341.004 2.012.005-.086.078-.189.085-.294.085h-1.427c-.105 0-.209-.003-.291-.09Zm2.044-.039c-.012-1.358-.018-2.713.003-4.07.071.06.043.146.043.222 0 1.209.002 2.42 0 3.63 0 .073.03.16-.046.218ZM20.844 16.29v-2.077c.083.072.08.173.08.274v1.529c0 .101.003.202-.08.274Zm64.101-2.077v2.077c-.083-.072-.08-.173-.08-.274v-1.529c0-.1-.003-.202.08-.274Zm-6.665 0v2.077c-.074-.092-.08-.206-.08-.321v-1.437c0-.115.007-.227.08-.321v.002Zm29.821 9.129h1.852c-.058.088-.141.092-.229.092h-1.395c-.087 0-.171 0-.227-.092h-.001ZM95.286 26.12v2.034c-.08-.09-.085-.204-.085-.32v-1.442c0-.1-.005-.204.085-.27v-.002Zm-10.336 0v2.034c-.08-.09-.084-.204-.084-.32v-1.442c0-.1-.005-.204.084-.27v-.002Zm-16.054 0v2.034c-.08-.09-.084-.204-.084-.32V26.39c0-.1-.005-.204.084-.27ZM9.253 21.27l-.008 2.034c-.08-.074-.076-.175-.076-.276v-1.439c0-.115.005-.229.084-.317v-.002Zm112.745-3.252v-3.706h.013v3.704h-.013v.002ZM78.283 26.12l-.008 1.99a.514.514 0 0 1-.074-.305V26.42c0-.108.008-.215.082-.3Zm-3.472 1.988-.008-1.99c.074.085.082.191.082.3v1.385a.51.51 0 0 1-.074.305Zm-29.505 0-.009-1.99c.075.085.083.191.083.3v1.385a.51.51 0 0 1-.075.305Zm-33.411.029 1.77.015c-.08.075-.174.086-.273.086h-1.236c-.097 0-.196-.002-.261-.1Zm32.025-7.993c-.06-.056-.038-.134-.038-.202v-3.103c0-.069-.022-.146.038-.202v3.507Zm62.444-.304c-.06-.055-.039-.133-.039-.201v-2.845c0-.069-.023-.146.04-.2l-.001 3.247Zm8.942 3.971h-2.155v-.02h2.159s0 .015-.002.02h-.002ZM47.604 18.55h1.865v.02h-1.874l.009-.02Zm54.07-4.295c.018.665.018 1.33 0 1.996-.053-.04-.045-.1-.045-.157V14.41c0-.056-.008-.118.045-.157v.002Zm-54.24 4.768c-.605.004-1.21.005-1.813.009.03-.067.086-.058.136-.058h1.556c.045 0 .093 0 .123.049h-.002Zm-32.541-4.768a36.7 36.7 0 0 1 0 1.996c-.053-.04-.045-.1-.045-.157V14.41c0-.056-.008-.118.045-.157v.002Zm7.637.048v1.893h-.017v-1.893h.018Zm5.057 1.946a36.7 36.7 0 0 1 0-1.996c.053.04.044.099.044.157v1.684c0 .056.009.117-.044.157v-.002Zm.667-1.935v1.875h-.018v-1.884s.013.006.018.01Zm6.234 1.935a36.7 36.7 0 0 1 0-1.996c.053.04.045.099.045.157v1.684c0 .056.008.117-.045.157v-.002Zm4.742-1.994a36.7 36.7 0 0 1 0 1.996c-.053-.04-.044-.1-.044-.157V14.41c0-.056-.009-.118.044-.157v.002Zm45.04 1.994a36.7 36.7 0 0 1 0-1.996c.053.04.045.099.045.157v1.684c0 .056.008.117-.045.157v-.002Zm16.76-1.937v1.89h-.018v-1.895l.018.005Zm6.917 5.635c-.009-.052.005-.112-.045-.15l.112-.956c.012 0 .023.002.035.003l.019.101c-.023.336-.057.67-.121 1v.002ZM45.62 23.898c.604.003 1.21.005 1.812.009-.036.058-.09.049-.143.049h-1.515c-.056 0-.122.018-.156-.058h.002Zm-31.017-2.54v1.89h-.015v-1.89h.015Zm87.071 4.803c.022.65.015 1.3.003 1.947-.057-.036-.047-.097-.047-.153v-1.639c0-.056-.009-.117.044-.157v.002Zm-.662 1.892v-1.841h.018v1.848l-.018-.007ZM89.831 26.22v1.833h-.018v-1.84s.013.006.018.01v-.002Zm-5.564 1.889c-.011-.65-.018-1.3.003-1.948.053.04.045.1.045.157v1.639c0 .056.01.117-.048.153v-.001ZM39.23 26.161c.022.65.015 1.3.004 1.947-.058-.036-.048-.097-.048-.153v-1.639c0-.056-.008-.117.044-.157v.002Zm-11.004 1.892V26.22h.018v1.839l-.018-.01v.003Zm81.689-9.29c-.593.022-1.185.02-1.778 0 .036-.058.09-.049.143-.049h1.492c.051 0 .107-.009.143.05Zm-2.053 1.119c-.021.014-.043.042-.064.042h-1.328c-.021 0-.045-.026-.066-.038.487 0 .973-.002 1.46-.004h-.002Zm-62.521.35c-.044.06-.107.042-.164.042h-1.054c-.055 0-.118.018-.164-.044h1.38l.002.002Zm64.533-2.599c.036-.023.038-.065.045-.104.06.229.098.463.116.7-.021.1-.054.058-.064 0-.036-.199-.066-.397-.097-.598v.002Zm-36.172-1.17c.044-.06.106-.043.163-.043h1.015c.056 0 .12-.018.161.045-.447 0-.894 0-1.34-.002Zm-4.97.001c.226-.096.46-.033.69-.038.165-.004.336-.054.496.038h-1.186Zm-8.402 10.52-.054-.05c.09-.145.21-.217.37-.205l.041.04c-.105.1-.238.14-.356.215Zm9.192-.951c-.193.094-.397.018-.594.042.193-.094.396-.02.594-.042Zm-1.105-7.36c.015-.13-.04-.27.04-.39-.017.13.038.269-.04.39Zm.079-.91c.015-.13-.038-.269.04-.392-.017.13.04.27-.04.392Zm-.04.433c.015-.115-.038-.24.038-.348-.015.115.038.24-.038.348Zm.08-.953c.014-.115-.04-.24.038-.348-.017.116.038.24-.038.348Zm-.158 1.777c.011-.087-.032-.185.038-.262-.012.087.031.184-.038.262Zm-22.88.387c-.012.087.03.184-.038.26.011-.087-.032-.184.038-.26Zm29.583-2.898c.071.06.031.142.041.216-.064-.06-.03-.144-.04-.216Zm-29.622 3.288c-.009.074.026.156-.038.219.008-.074-.027-.155.038-.219Zm43.235-2.381c-.096-.063-.07.065-.114.085v-.446a.653.653 0 0 1 .114.361Zm7.724.001-.11-.044a.582.582 0 0 1 .11-.328v.372Zm-3.539 4.589c.05.044.102.038.153 0 .014.098-.032.177-.061.284-.076-.094-.082-.19-.092-.284Zm-7.499 4.106c.08-.056.156-.054.235 0h-.235Zm-58.888-9.258c.056.068.031.151.031.227v6.169c0 .076.026.16-.036.226v-6.061c0-.188.003-.375.006-.563l-.001.002Zm91.627 11.469c-.031.05-.077.047-.123.047h-1.059c-.046 0-.092 0-.123-.049h1.303l.002.002Zm-74.273-8.006h1.611c-.01.05-.046.04-.077.04h-1.458c-.031 0-.068.01-.076-.04Zm26.233 5.296c-.002-.044-.007-.087-.007-.13 0-3.033 0-6.067.002-9.099.071.022.033.083.033.125v8.896c0 .07.022.144-.028.207Z"/><path fill="#fff" d="m60.646 26.73-.37.203c-.722.323-1.47.511-2.252.511-2.717 0-5.033-2.17-5.47-5.115a6.713 6.713 0 0 1 .365-3.384c.031-.085.054-.173.08-.26.194-.303.337-.64.543-.938 1.173-1.691 2.725-2.55 4.663-2.498 2.59.07 4.788 2.137 5.276 4.922.455 2.595-.646 5.2-2.75 6.503a2.162 2.162 0 0 0-.084.057l-.001-.002Z"/><path fill="#252525" d="m57.472 18.176.315.49c.69-.786 1.381-1.569 2.055-2.336 0 .329.01.666-.002 1.004-.033.898-.077 1.797-.116 2.694-.022.475-.048.948-.063 1.422-.01.313.117.444.401.42.745-.068 1.49-.143 2.234-.21.08-.007.112-.045.14-.12.066-.17.145-.335.215-.503.013-.03.012-.08.056-.065.056.018.036.07.021.105a2.57 2.57 0 0 1-.11.249c-.25.494-.306 1.058-.47 1.583-.034.11-.077.168-.177.207-.249.098-.396.325-.533.554-.108.183-.316.396-.25.567.05.128.35.05.538.063.208.017.416.035.63.05-.042.062-.093.033-.134.033h-6.96c-.111 0-.144-.029-.14-.151.008-.29-.004-.578.004-.867.004-.119-.026-.155-.138-.162-.287-.016-.575-.049-.863-.08-.062-.007-.146.015-.175-.057-.028-.072.054-.105.091-.148 1.031-1.172 2.063-2.341 3.097-3.51a.614.614 0 0 0 .16-.335c.042-.288.108-.575.174-.9v.003Z"/><path fill="#fff" d="M55.04 24.382h-1.546c.518-.022 1.034-.204 1.552-.073 0 .024-.004.047-.005.073Zm2.924-2.152c-.26.09-.39-.004-.39-.282v-2.745c0-.036-.003-.072 0-.108.012-.123.102-.195.18-.236.078-.042.098.084.134.144.53.827 1.056 1.653 1.585 2.48.07.11.105.215.092.355-.032.35-.046.703-.058 1.053-.003.103-.034.115-.115.108-.43-.036-.861-.07-1.294-.096-.105-.007-.147-.036-.137-.16.011-.165.003-.33.003-.511v-.002Zm1.826-5.692-.216 4.936-.32-.5c-.448-.706-.893-1.412-1.345-2.115-.046-.073-.074-.114-.002-.194.602-.674 1.197-1.355 1.793-2.035l.09-.092Zm-5.709 6.477 3.107-3.525.03.022c-.113.594-.223 1.188-.334 1.78-.06.313-.127.628-.178.943-.018.116-.05.168-.161.157-.084-.009-.17.004-.255-.007-.258-.034-.273-.036-.253.258.015.22-.043.282-.248.285-.55.01-1.1.055-1.706.089l-.002-.002Zm3.366-3.815v3.066c0 .092-.04.105-.108.108-.173.01-.336-.09-.518-.03-.076.025-.044-.085-.036-.13.156-.84.31-1.679.478-2.516.031-.157.007-.347.181-.498h.003Zm4.838 2.812c-.025.125-.044.235-.07.343-.024.115-.114.1-.19.106-.56.046-1.119.116-1.678.224-.04-.133.031-.256.021-.384-.008-.11.075-.076.125-.081.587-.07 1.172-.136 1.79-.206l.002-.002Zm-2.824 1.074c-.013.243-.107.323-.314.31-.353-.022-.71-.007-1.065-.005-.253 0-.079-.2-.113-.302-.04-.115.044-.106.128-.1.45.035.902.064 1.364.095v.002Zm.122-.163c.06-.377.018-.738.07-1.146.202.31.383.588.56.87.045.069-.016.085-.062.092-.187.03-.363.103-.569.184Z"/><path fill="#fff" d="m56.658 22.488-.022.085c-.066.316-.146.375-.447.343-.054-.006-.084-.015-.082-.083.003-.128 0-.255 0-.397.19.068.367.034.549.052h.002Zm.524.399c-.067-.027-.248.107-.2-.128.021-.108-.097-.329.107-.303.111.012.361-.161.365.198.003.242-.081.287-.273.235l.002-.002Zm.698-.524c0 .138-.005.273.001.408.005.09-.036.127-.1.1-.069-.027-.174.099-.209-.054-.05-.24 0-.376.155-.417l.153-.037Zm-.981.272c0 .072.003.122 0 .173-.01.13-.102.085-.166.083-.089-.002-.06-.063-.04-.121.013-.04 0-.092.017-.126.038-.074-.01-.237.14-.202.123.026-.002.151.049.193Zm-.002.53c-.034.081.041.226-.069.22-.126-.005-.066-.157-.072-.245-.005-.06-.041-.166.066-.164.147.005.028.137.075.19Zm4.331-.247c.03.128-.033.15-.09.144-.124-.013-.076-.137-.098-.213-.021-.076.014-.117.092-.108.132.016.076.137.094.177h.002Zm-.346.058c.03.1.014.158-.079.157-.15-.002-.057-.14-.09-.208-.05-.107.041-.126.097-.126.14 0 .033.135.07.177h.002Zm-.828.1c-.02-.092.015-.151.096-.14.13.016.07.153.098.23.027.071-.026.098-.09.096-.127-.003-.089-.113-.104-.186Zm1.746-.272c-.05-.132-.005-.191.08-.184.13.01.052.146.083.218.038.089-.03.112-.09.116-.149.012-.048-.128-.075-.152l.002.002Zm-1.907.372c.04.104.01.158-.073.162-.15.005-.062-.132-.09-.2-.038-.092.017-.134.092-.134.146 0 .033.136.07.172Zm.685-.079c.019.061-.03.104-.107.09-.12-.024-.062-.155-.09-.235-.03-.088.046-.08.096-.08.133 0 .079.116.102.225Zm1.012-.242c.007.092.017.151-.078.15-.14-.004-.087-.13-.112-.203-.028-.083.023-.112.092-.112.13 0 .06.132.099.165Zm-3.705.339v.15c-.004.046-.04.06-.07.046-.11-.054-.034-.158-.044-.238-.008-.061-.036-.15.048-.184.034-.014.06.018.062.058.004.056 0 .114 0 .17h.004v-.002Zm-.751-.009c0-.029-.004-.058 0-.087.006-.043-.023-.113.05-.115.083-.002.065.072.068.126.003.058 0 .116.003.173.004.06.012.116-.072.112-.1-.003-.043-.077-.051-.122-.005-.027 0-.058 0-.087h.002Zm.553-.011c0 .067.002.117 0 .166s-.035.05-.07.05c-.03 0-.047-.02-.047-.052 0-.05-.006-.1 0-.15.013-.073-.054-.209.066-.205.108.003.02.139.05.19v.001Zm-.363-.004c.04-.057-.05-.187.07-.182.108.006.057.13.05.195-.007.069.076.208-.06.2-.116-.007-.012-.144-.06-.21v-.002Zm-.681-.213c.076.137.028.256.053.367.02.083-.04.068-.084.072-.064.005-.08-.03-.064-.092l.095-.347Zm3.615-.435c-.07-.077-.163-.142-.151-.249.005-.047.125-.068.153-.038.082.085-.002.188 0 .287h-.002Zm-3.195.654c-.034.074.045.193-.056.206-.085.01-.044-.1-.046-.154 0-.08-.036-.21.055-.22.089-.007 0 .12.047.166v.002Z"/><path fill="#000" d="M57.577 18.873v-.316c.124.106.124.211 0 .316Zm-.157-.002c.026.08.07.16-.031.235.013-.094.023-.164.03-.235Z"/><path fill="#252525" d="M60.756 24.277c.12-.022.183-.029.263.004-.083.029-.148.027-.263-.004Z"/></svg>